<?xml version="1.0" encoding="utf-8"?>
<!-- Generator: Adobe Illustrator 26.4.1, SVG Export Plug-In . SVG Version: 6.00 Build 0)  -->
<svg version="1.1" id="Capa_1" xmlns="http://www.w3.org/2000/svg" xmlns:xlink="http://www.w3.org/1999/xlink" x="0px" y="0px"
	 viewBox="0 0 595.28 841.89" style="enable-background:new 0 0 595.28 841.89;" xml:space="preserve">
<style type="text/css">
	.st0{fill:#5D9EC7;}
	.st1{font-family:'FranklinGothic-Medium';}
	.st2{font-size:96px;}
	.st3{letter-spacing:-9.57;}
	.st4{fill:none;}
	.st5{fill:#FFFFFF;}
	.st6{fill:none;stroke:#FFFFFF;stroke-width:8;stroke-miterlimit:10;}
</style>
<text transform="matrix(1.4623 0 0 1 54.7258 670.5703)"><tspan x="0" y="0" class="st0 st1 st2 st3">Blue</tspan><tspan x="145.54" y="0" class="st1 st2 st3">Head</tspan></text>
<rect y="426" class="st4" width="595.28" height="268"/>
<rect x="65.01" y="157" width="466.22" height="447"/>
<path class="st0" d="M401.58,315.09c2.65-18.67-2.28-38.3-13.42-53.51c-19.09-26.05-53.22-36.64-85.47-38.52
	c-24.54-1.43-50.11,1.51-71.33,13.91c-23.02,13.44-38.93,37.04-47.1,62.41c-8.17,25.37-9.22,52.52-7.71,79.13
	c2.12,37.33,9.58,75.43,30.02,106.74s55.84,54.69,93.19,52.91c24.79-1.18,48.31-13.24,66.17-30.49
	c17.85-17.24,30.4-39.37,39.29-62.54c21.8-56.75,21.41-124.16-11.22-175.45"/>
<polygon class="st5" points="266.63,432.89 234.28,415.54 201.93,432.89 208.11,396.13 181.93,370.1 218.1,364.74 234.28,331.29 
	250.45,364.74 286.62,370.1 260.45,396.13 "/>
<circle class="st5" cx="356.15" cy="389.91" r="42.98"/>
<circle class="st0" cx="356.15" cy="389.91" r="23.26"/>
<line class="st6" x1="239.03" y1="493.79" x2="261.46" y2="470.63"/>
<line class="st6" x1="278.48" y1="492.34" x2="257.61" y2="472.45"/>
<line class="st6" x1="296.08" y1="468.35" x2="272.83" y2="492.36"/>
<path class="st6" d="M328.16,468.3"/>
<path class="st6" d="M349.04,488.19"/>
<line class="st6" x1="290.36" y1="468.21" x2="313.6" y2="492.22"/>
<line class="st6" x1="308.09" y1="492.19" x2="328.96" y2="472.3"/>
<line class="st6" x1="345.77" y1="495.31" x2="323.34" y2="472.15"/>
<rect x="287.52" y="458.47" transform="matrix(0.6956 0.7184 -0.7184 0.6956 422.6142 -72.1153)" class="st0" width="17.78" height="8.4"/>
<rect x="277.73" y="462.11" transform="matrix(-0.6956 0.7184 -0.7184 -0.6956 821.0001 584.7783)" class="st0" width="17.78" height="8.4"/>
</svg>
