<?xml version="1.0" encoding="utf-8"?>
<!-- Generator: Adobe Illustrator 26.0.0, SVG Export Plug-In . SVG Version: 6.00 Build 0)  -->
<svg version="1.1" id="Capa_1" xmlns="http://www.w3.org/2000/svg" xmlns:xlink="http://www.w3.org/1999/xlink" x="0px" y="0px"
	 viewBox="0 0 550.6 527.9" style="enable-background:new 0 0 550.6 527.9;" xml:space="preserve">
<style type="text/css">
	.st0{fill:#5D9EC7;}
	.st1{fill:#FFFFFF;}
	.st2{fill:none;stroke:#FFFFFF;stroke-width:8;stroke-miterlimit:10;}
</style>
<rect width="550.6" height="527.9"/>
<path class="st0" d="M397.5,186.7c3.1-22-2.7-45.2-15.8-63.2C359.1,92.7,318.8,80.2,280.7,78c-29-1.7-59.2,1.8-84.2,16.4
	c-27.2,15.9-46,43.7-55.6,73.7c-9.6,30-10.9,62-9.1,93.5c2.5,44.1,11.3,89.1,35.5,126.1s65.9,64.6,110.1,62.5
	c29.3-1.4,57.1-15.6,78.1-36c21.1-20.4,35.9-46.5,46.4-73.9c25.7-67,25.3-146.6-13.3-207.2"/>
<polygon class="st1" points="238.1,325.8 199.9,305.3 161.7,325.8 169,282.4 138.1,251.7 180.8,245.3 199.9,205.8 219,245.3 
	261.7,251.7 230.8,282.4 "/>
<circle class="st1" cx="343.9" cy="275.1" r="50.8"/>
<circle class="st0" cx="343.9" cy="275.1" r="27.5"/>
<line class="st2" x1="205.5" y1="397.8" x2="232" y2="370.4"/>
<line class="st2" x1="252.1" y1="396" x2="227.5" y2="372.6"/>
<line class="st2" x1="272.9" y1="367.7" x2="245.4" y2="396.1"/>
<path class="st2" d="M310.8,367.7"/>
<path class="st2" d="M335.5,391.1"/>
<line class="st2" x1="266.1" y1="367.6" x2="293.6" y2="395.9"/>
<line class="st2" x1="287.1" y1="395.9" x2="311.7" y2="372.4"/>
<line class="st2" x1="331.6" y1="399.6" x2="305.1" y2="372.2"/>
<rect x="268.3" y="350.5" transform="matrix(0.7184 -0.6956 0.6956 0.7184 -174.1552 291.7605)" class="st0" width="9.9" height="21"/>
<rect x="251.2" y="360.4" transform="matrix(0.6956 -0.7184 0.7184 0.6956 -182.778 299.2397)" class="st0" width="21" height="9.9"/>
</svg>
